<svg height='300px' width='300px'  fill="#FFFFFF" xmlns="http://www.w3.org/2000/svg" xmlns:xlink="http://www.w3.org/1999/xlink" version="1.1" x="0px" y="0px" viewBox="0 0 100 100" style="enable-background:new 0 0 100 100;" xml:space="preserve"><path d="M81.41,78.59L63.73,60.9C67.63,56.35,70,50.45,70,44c0-14.34-11.66-26-26-26S18,29.66,18,44s11.66,26,26,26  c6.45,0,12.35-2.37,16.9-6.27l17.68,17.68C78.98,81.8,79.49,82,80,82s1.02-0.2,1.41-0.59C82.2,80.63,82.2,79.37,81.41,78.59z M44,66  c-12.13,0-22-9.87-22-22s9.87-22,22-22s22,9.87,22,22S56.13,66,44,66z"></path></svg>